# xmcd
#
# Track frame offsets: 
#        150
#        12295
#        24152
#        38432
#        50442
#        62225
#        74767
#        87715
#        100637
#        112315
#        125700
#        139275
#        150405
#        162450
#        175095
#        185002
#        198565
#        209222
#        222280
#        234742
#        257980
#        270225
#        283885
#        295830
#        309187
#        321945
#        335005
#        347447
#
# Disc length: 4798 seconds
#
# Revision: 3
# Processed by: cddbd v1.5.2PL0 Copyright (c) Steve Scherf et al.
# Submitted via: ExactAudioCopyFreeDBPlugin 1.0
#
DISCID=b912bc1c
DTITLE=Various Artist - Blowing the Fuse:  459 R&B Classics, 1945-196
DTITLE=0 [Bear Family]
DYEAR=1950
DGENRE=Rhythm and Blues
TTITLE0=Roy Milton - Information Blues
TTITLE1=Wynonie Harris - Sittin' On it All the Time
TTITLE2=Ivory Joe Hunter - I Almost Lost My Mind
TTITLE3=Doc Sausage - Rag Mop
TTITLE4=Fats Domino - The Fat Man
TTITLE5=Johnny Otis - Double Crossing Blues
TTITLE6=Eddie Mack - Hoot and Holler Saturday Night
TTITLE7=Professor Longhair - Mardi Gras in New Orleans
TTITLE8=Jewel King - 3 x 7 =21
TTITLE9=Roy Hawkins - Why Do These Things Happen to Me
TTITLE10=Joe Liggins - Pink Champaign
TTITLE11=T-Bone Walker - Stollin' with Bones
TTITLE12=Tiny Bradshaw - Well Oh Well
TTITLE13=Joe Turner - Still in the Dark
TTITLE14=Archibald - Stack-A'Lee, Parts 1 and 2
TTITLE15=Goree Carter - Come on Let's Boogie
TTITLE16=Safronia B. - Calvin Boze
TTITLE17=The Ravens - Count Every Star
TTITLE18=Lowell Fulson - Blue Shadows
TTITLE19=Louis Jordan - Blue Light Boogie, Part 1&2
TTITLE20=Roy Brown - Love Don't Love Nobody
TTITLE21=Joe Morris - Anytime, Anyplace, Anywhere
TTITLE22=Lightin' Hopkins - Shotgun Blues
TTITLE23=Ruth Brown - Teardrops from My Eyes
TTITLE24=Clarence Brown - Boogie Rambler
TTITLE25=Percy Mayfield - Please Send Me Someone to Love
TTITLE26=Lloyd Glenn - Old Time Shuffle Blues
TTITLE27=Jimmy Preston - Oh, Babe!
EXTD=YEAR: 1950
EXTT0=
EXTT1=
EXTT2=
EXTT3=
EXTT4=
EXTT5=
EXTT6=
EXTT7=
EXTT8=
EXTT9=
EXTT10=
EXTT11=
EXTT12=
EXTT13=
EXTT14=
EXTT15=
EXTT16=
EXTT17=
EXTT18=
EXTT19=
EXTT20=
EXTT21=
EXTT22=
EXTT23=
EXTT24=
EXTT25=
EXTT26=
EXTT27=
PLAYORDER=
